<?xml version="1.0" encoding="utf-8"?>
<!DOCTYPE svg PUBLIC "-//W3C//DTD SVG 1.1//EN" "http://www.w3.org/Graphics/SVG/1.1/DTD/svg11.dtd">
<svg xmlns="http://www.w3.org/2000/svg" xmlns:xlink="http://www.w3.org/1999/xlink" version="1.1" baseProfile="full" width="300" height="300" viewBox="0 0 300.00 300.00" enable-background="new 0 0 300.00 300.00" xml:space="preserve">
	<path fill="#E2001A" fill-opacity="1" stroke-width="0.2" stroke-linejoin="round" d="M 290.105,189.732C 293.781,176.72 295.81,162.942 295.81,148.606C 295.81,68.259 234.211,4.29999 149.774,4.29999C 64.8994,4.29999 3.29998,68.259 3.29998,148.606C 3.29998,229.345 64.8994,293.3 149.774,293.3C 165.104,293.3 179.65,291.132 193.246,287.207C 175.622,260.105 156.995,233.641 139.47,206.485C 133.359,197.016 125.263,193.648 115.174,192.796C 107.216,192.131 99.1783,192.247 91.2208,191.476C 84.8735,190.86 65.6309,189.696 62.8877,183.148C 60.4389,177.336 56.4066,173.656 51.964,169.651C 40.5541,159.32 36.9098,145.769 37.4852,130.773C 37.57,128.748 37.3782,126.567 36.6734,124.702C 33.9168,117.423 36.8429,112.329 44.3811,111.579C 49.7427,111.049 55.0863,110.041 60.4389,109.965C 64.1099,109.916 67.7809,111.459 71.4698,111.655C 75.6671,111.883 92.4207,112.235 96.2969,111.017C 99.8519,109.902 103.679,107.404 105.833,104.402C 115.437,90.9719 128.515,84.3971 144.582,82.885C 153.503,82.0331 162.384,81.7966 171.197,82.6352C 176.604,83.1437 181.524,82.5639 186.894,83.9912C 190.079,84.8298 214,78.1614 216.4,80.2399C 223.43,86.3285 216.873,89.6115 217.805,94.295C 218.671,98.6261 216.565,104.652 219.991,107.485C 225.575,112.106 231.637,121.401 236.075,128.012C 252.775,152.915 269.939,169.004 290.105,189.732 Z "/>
</svg>
