<?xml version="1.0" encoding="utf-8"?>
<!DOCTYPE svg PUBLIC "-//W3C//DTD SVG 1.1//EN" "http://www.w3.org/Graphics/SVG/1.1/DTD/svg11.dtd">
<svg xmlns="http://www.w3.org/2000/svg" xmlns:xlink="http://www.w3.org/1999/xlink" version="1.1" baseProfile="full" width="458.667" height="137.333" viewBox="0 0 458.67 137.33" enable-background="new 0 0 458.67 137.33" xml:space="preserve">
	<path fill="#1A181C" fill-opacity="1" stroke-width="0.2" stroke-linejoin="round" d="M 353.404,129.465L 348.119,129.465L 348.119,134.915L 353.404,134.915M 383.173,126.453L 378.363,126.453C 376.88,129.415 374.079,131.423 370.483,131.423C 365.459,131.423 361.336,126.928 361.336,121.325C 361.336,115.719 365.459,111.12 370.483,111.12C 374.025,111.12 376.825,113.127 378.363,116.089L 383.173,116.089C 381.32,110.591 376.564,106.995 370.483,106.995C 362.973,106.995 356.839,113.447 356.839,121.325C 356.839,129.204 362.973,135.548 370.483,135.548C 376.564,135.548 381.375,131.952 383.173,126.453 Z M 400.251,106.995C 392.531,106.995 386.557,113.447 386.557,121.376C 386.557,129.204 392.531,135.548 400.251,135.548C 408.025,135.548 413.945,129.204 413.945,121.376C 413.945,113.447 408.025,106.995 400.251,106.995 Z M 400.251,131.423C 395.228,131.423 391.105,126.928 391.105,121.376C 391.105,115.719 395.228,111.12 400.251,111.12C 405.328,111.12 409.451,115.719 409.451,121.376C 409.451,126.928 405.328,131.423 400.251,131.423 Z M 458.311,118.047C 458.311,111.279 454.503,106.995 448.211,106.995C 444.296,106.995 441.389,108.844 439.696,111.651C 438.005,108.74 435.152,106.995 431.289,106.995C 428.277,106.995 425.736,108.368 424.044,110.644L 424.044,107.681L 419.709,107.681L 419.709,134.915L 424.204,134.915L 424.204,118.256C 424.204,114.185 426.953,111.12 430.656,111.12C 434.672,111.12 436.789,113.711 436.789,117.94L 436.789,134.915L 441.229,134.915L 441.229,118.256C 441.229,114.185 443.928,111.12 447.629,111.12C 451.807,111.12 453.815,113.711 453.815,117.94L 453.815,134.915L 458.311,134.915L 458.311,118.047 Z "/>
	<path fill="#1A181C" fill-opacity="1" stroke-width="0.2" stroke-linejoin="round" d="M 73.4013,94.4385C 73.4013,68.8705 57.948,52.9759 33.096,52.9759L 1.01725e-005,52.9759L 1.01725e-005,135.903L 33.096,135.903C 57.5627,135.903 73.4013,119.769 73.4013,94.4385 Z M 56.4053,94.3212C 56.4053,104.355 53.3147,121.204 33.096,121.204L 17,121.204L 17,67.6732L 33.096,67.6732C 52.2827,67.6732 56.4053,82.1319 56.4053,94.3212 Z "/>
	<path fill="#E2001A" fill-opacity="1" stroke-width="0.2" stroke-linejoin="round" d="M 167.632,106.375C 168.731,102.485 169.337,98.3667 169.337,94.0813C 169.337,70.064 150.924,50.9453 125.684,50.9453C 100.313,50.9453 81.8999,70.064 81.8999,94.0813C 81.8999,118.216 100.313,137.333 125.684,137.333C 130.267,137.333 134.615,136.685 138.679,135.512C 133.411,127.411 127.843,119.5 122.604,111.383C 120.777,108.552 118.357,107.545 115.341,107.291C 112.963,107.092 110.56,107.127 108.181,106.896C 106.284,106.712 100.532,106.364 99.7119,104.407C 98.9799,102.669 97.7745,101.569 96.4466,100.372C 93.0359,97.284 91.9465,93.2333 92.1186,88.7507C 92.1439,88.1453 92.0865,87.4933 91.8759,86.936C 91.0519,84.76 91.9265,83.2373 94.1799,83.0133C 95.7826,82.8547 97.3799,82.5533 98.9799,82.5307C 100.077,82.516 101.175,82.9773 102.277,83.036C 103.532,83.104 108.54,83.2093 109.699,82.8453C 110.761,82.512 111.905,81.7653 112.549,80.868C 115.42,76.8533 119.329,74.888 124.132,74.436C 126.799,74.1813 129.453,74.1107 132.088,74.3613C 133.704,74.5133 135.175,74.34 136.78,74.7667C 137.732,75.0173 144.883,73.024 145.6,73.6453C 147.701,75.4653 145.741,76.4467 146.02,77.8466C 146.279,79.1413 145.649,80.9427 146.673,81.7893C 148.343,83.1707 150.155,85.9493 151.481,87.9253C 156.473,95.3693 161.604,100.179 167.632,106.375 Z "/>
	<path fill="#1A181C" fill-opacity="1" stroke-width="0.2" stroke-linejoin="round" d="M 262.175,108.687L 243.776,108.687C 239.783,116.215 231.276,122.995 221.104,122.995C 206.423,122.995 194.833,109.854 194.833,94.0818C 194.833,78.4285 206.423,65.2832 221.104,65.2832C 231.407,65.2832 239.3,70.6565 243.293,78.1819L 261.931,78.1819C 256.393,61.2152 241.32,50.8272 221.104,50.8272C 196.765,50.8272 177.836,69.8259 177.836,94.0818C 177.836,118.338 196.765,137.333 221.104,137.333C 240.935,137.333 256.507,125.534 262.175,108.687 Z "/>
	<path fill="#1A181C" fill-opacity="1" stroke-width="0.2" stroke-linejoin="round" d="M 306.093,50.8252C 285.231,50.8252 271.71,60.7412 271.71,74.9639C 271.71,92.7679 288.453,97.3052 304.934,100.293C 321.418,103.28 326.054,106.508 326.054,111.764C 326.054,119.651 315.879,122.873 306.093,122.873C 297.081,122.873 286.625,118.484 286.625,108.684L 269.439,108.684C 269.439,128.637 288.581,137.333 306.093,137.333C 328.629,137.333 343.051,127.297 343.051,111.285C 343.051,94.3212 329.659,89.4199 308.413,85.4759C 294.761,82.8492 288.71,80.8172 288.71,75.0812C 288.71,68.7479 297.081,65.5225 306.093,65.5225C 316.909,65.5225 323.35,70.8985 323.35,78.0679L 340.348,78.0679C 340.348,64.9252 329.659,50.8252 306.093,50.8252 Z "/>
	<g>
		<defs>
			<rect id="SVG_CLIPPER1_" x="1.07979" y="-0.321213" width="165.778" height="41.2387"/>
		</defs>
		<clipPath id="SVG_CLIPPER2_">
			<use xlink:href="#SVG_CLIPPER1_" overflow="visible"/>
		</clipPath>
		<g clip-path="url(#SVG_CLIPPER2_)">
			<path fill="#E2001A" fill-opacity="1" stroke-width="0.2" stroke-linejoin="round" d="M 158.733,0.943054L 158.733,5.21638C 155.032,1.78973 150.083,-0.322266 144.625,-0.322266C 133.175,-0.322266 123.889,8.90973 123.889,20.2977C 123.889,31.6857 133.175,40.9177 144.625,40.9177C 150.083,40.9177 155.032,38.8057 158.733,35.3791L 158.733,39.8497L 166.751,39.8497L 166.859,0.943054M 159.055,20.1817C 159.055,27.8564 152.833,34.0777 145.16,34.0777C 137.485,34.0777 131.265,27.8564 131.265,20.1817C 131.265,12.5084 137.485,6.28706 145.16,6.28706C 152.833,6.28706 159.055,12.5084 159.055,20.1817 Z M 108.183,39.9711L 124.405,0.957718L 115.948,0.957718L 104.731,30.4057L 93.7721,0.957718L 85.2308,0.957718L 100.935,39.9711M 80.3881,39.8497L 80.4935,0.943054L 72.3721,0.943054L 72.3721,5.21638C 68.6695,1.78973 63.7201,-0.322266 58.2641,-0.322266C 46.8121,-0.322266 37.5295,8.90973 37.5295,20.2977C 37.5295,31.6857 46.8121,40.9177 58.2641,40.9177C 63.7201,40.9177 68.6695,38.8057 72.3721,35.3791L 72.3721,39.8497M 72.6935,20.1817C 72.6935,27.8564 66.4721,34.0777 58.7988,34.0777C 51.1241,34.0777 44.9028,27.8564 44.9028,20.1817C 44.9028,12.5084 51.1241,6.28706 58.7988,6.28706C 66.4721,6.28706 72.6935,12.5084 72.6935,20.1817 Z M 20.2361,16.6217L 38.0988,0.957718L 28.0895,0.957718L 9.01881,18.2044L 9.01881,0.961731L 1.08014,0.961731L 1.08014,39.9711L 9.01881,39.9711L 9.01881,26.1884L 14.5415,21.443L 29.3841,39.9711L 39.3068,39.9711L 20.2361,16.6217 Z "/>
		</g>
	</g>
</svg>
