<?xml version="1.0" encoding="utf-8"?>
<!DOCTYPE svg PUBLIC "-//W3C//DTD SVG 1.1//EN" "http://www.w3.org/Graphics/SVG/1.1/DTD/svg11.dtd">
<svg xmlns="http://www.w3.org/2000/svg" xmlns:xlink="http://www.w3.org/1999/xlink" version="1.1" baseProfile="full" width="857.333" height="87.2072" viewBox="0 0 857.33 87.21" enable-background="new 0 0 857.33 87.21" xml:space="preserve">
	<g>
		<defs>
			<rect id="SVG_CLIPPER1_" x="1.01725e-005" y="-0.375473" width="857.384" height="87.5827"/>
		</defs>
		<clipPath id="SVG_CLIPPER2_">
			<use xlink:href="#SVG_CLIPPER1_" overflow="visible"/>
		</clipPath>
		<g clip-path="url(#SVG_CLIPPER2_)">
			<path fill="#1A181C" fill-opacity="1" stroke-width="0.2" stroke-linejoin="round" d="M 752.479,78.4552L 747.193,78.4552L 747.193,83.9045L 752.479,83.9045M 782.248,75.4432L 777.437,75.4432C 775.955,78.4045 773.153,80.4125 769.557,80.4125C 764.533,80.4125 760.411,75.9179 760.411,70.3152C 760.411,64.7085 764.533,60.1099 769.557,60.1099C 773.1,60.1099 775.9,62.1165 777.437,65.0792L 782.248,65.0792C 780.395,59.5805 775.639,55.9845 769.557,55.9845C 762.048,55.9845 755.913,62.4365 755.913,70.3152C 755.913,78.1939 762.048,84.5379 769.557,84.5379C 775.639,84.5379 780.449,80.9419 782.248,75.4432 Z M 799.325,55.9845C 791.605,55.9845 785.632,62.4365 785.632,70.3659C 785.632,78.1939 791.605,84.5379 799.325,84.5379C 807.1,84.5379 813.02,78.1939 813.02,70.3659C 813.02,62.4365 807.1,55.9845 799.325,55.9845 Z M 799.325,80.4125C 794.303,80.4125 790.18,75.9179 790.18,70.3659C 790.18,64.7085 794.303,60.1099 799.325,60.1099C 804.403,60.1099 808.525,64.7085 808.525,70.3659C 808.525,75.9179 804.403,80.4125 799.325,80.4125 Z M 857.385,67.0365C 857.385,60.2685 853.577,55.9845 847.285,55.9845C 843.371,55.9845 840.464,57.8339 838.771,60.6405C 837.08,57.7299 834.227,55.9845 830.364,55.9845C 827.352,55.9845 824.811,57.3579 823.119,59.6339L 823.119,56.6712L 818.784,56.6712L 818.784,83.9045L 823.279,83.9045L 823.279,67.2459C 823.279,63.1752 826.028,60.1099 829.731,60.1099C 833.747,60.1099 835.864,62.7005 835.864,66.9299L 835.864,83.9045L 840.304,83.9045L 840.304,67.2459C 840.304,63.1752 843.003,60.1099 846.704,60.1099C 850.881,60.1099 852.889,62.7005 852.889,66.9299L 852.889,83.9045L 857.385,83.9045L 857.385,67.0365 Z "/>
			<path fill="#1A181C" fill-opacity="1" stroke-width="0.2" stroke-linejoin="round" d="M 472.476,43.4283C 472.476,17.8603 457.023,1.96561 432.171,1.96561L 399.075,1.96561L 399.075,84.8923L 432.171,84.8923C 456.637,84.8923 472.476,68.7589 472.476,43.4283 Z M 455.48,43.3109C 455.48,53.3443 452.389,70.1936 432.171,70.1936L 416.075,70.1936L 416.075,16.6629L 432.171,16.6629C 451.357,16.6629 455.48,31.1216 455.48,43.3109 Z "/>
			<path fill="#E2001A" fill-opacity="1" stroke-width="0.2" stroke-linejoin="round" d="M 566.707,55.3644C 567.805,51.4751 568.412,47.3564 568.412,43.0711C 568.412,19.0537 549.999,-0.0649261 524.759,-0.0649261C 499.388,-0.0649261 480.975,19.0537 480.975,43.0711C 480.975,67.2057 499.388,86.3231 524.759,86.3231C 529.341,86.3231 533.689,85.6751 537.753,84.5017C 532.485,76.4004 526.917,68.4897 521.679,60.3724C 519.852,57.5417 517.432,56.5351 514.416,56.2804C 512.037,56.0817 509.635,56.1164 507.256,55.8857C 505.359,55.7017 499.607,55.3537 498.787,53.3964C 498.055,51.6591 496.849,50.5591 495.521,49.3617C 492.111,46.2737 491.021,42.2231 491.193,37.7404C 491.219,37.1351 491.161,36.4831 490.951,35.9257C 490.127,33.7497 491.001,32.2271 493.255,32.0031C 494.857,31.8444 496.455,31.5431 498.055,31.5204C 499.152,31.5057 500.249,31.9671 501.352,32.0257C 502.607,32.0937 507.615,32.1991 508.773,31.8351C 509.836,31.5017 510.98,30.7551 511.624,29.8577C 514.495,25.8431 518.404,23.8777 523.207,23.4257C 525.873,23.1711 528.528,23.1004 531.163,23.3511C 532.779,23.5031 534.249,23.3297 535.855,23.7564C 536.807,24.0071 543.957,22.0137 544.675,22.6351C 546.776,24.4551 544.816,25.4364 545.095,26.8364C 545.353,28.1311 544.724,29.9324 545.748,30.7791C 547.417,32.1604 549.229,34.9391 550.556,36.9151C 555.548,44.3591 560.679,49.1684 566.707,55.3644 Z "/>
			<path fill="#1A181C" fill-opacity="1" stroke-width="0.2" stroke-linejoin="round" d="M 661.25,57.6769L 642.851,57.6769C 638.857,65.2049 630.351,71.9849 620.179,71.9849C 605.497,71.9849 593.908,58.8436 593.908,43.0716C 593.908,27.4183 605.497,14.2729 620.179,14.2729C 630.481,14.2729 638.375,19.6463 642.368,27.1716L 661.005,27.1716C 655.468,10.2049 640.395,-0.183075 620.179,-0.183075C 595.84,-0.183075 576.911,18.8156 576.911,43.0716C 576.911,67.3276 595.84,86.3223 620.179,86.3223C 640.009,86.3223 655.581,74.5236 661.25,57.6769 Z "/>
			<path fill="#1A181C" fill-opacity="1" stroke-width="0.2" stroke-linejoin="round" d="M 705.167,-0.185066C 684.306,-0.185066 670.785,9.73093 670.785,23.9536C 670.785,41.7576 687.528,46.2949 704.009,49.2829C 720.493,52.2696 725.129,55.4976 725.129,60.7536C 725.129,68.6403 714.954,71.8629 705.167,71.8629C 696.156,71.8629 685.699,67.4736 685.699,57.6736L 668.514,57.6736C 668.514,77.6269 687.656,86.3229 705.167,86.3229C 727.703,86.3229 742.126,76.2869 742.126,60.2749C 742.126,43.3109 728.734,38.4096 707.487,34.4656C 693.835,31.8389 687.785,29.8069 687.785,24.0709C 687.785,17.7376 696.156,14.5123 705.167,14.5123C 715.983,14.5123 722.425,19.8883 722.425,27.0576L 739.422,27.0576C 739.422,13.9149 728.734,-0.185066 705.167,-0.185066 Z "/>
		</g>
	</g>
	<path fill="#E2001A" fill-opacity="1" stroke-width="0.2" stroke-linejoin="round" d="M 57.3595,2.34161L 16.8595,38.9709L 16.8595,2.35092L 0.000813802,2.35092L 0.000813802,85.2003L 16.8595,85.2003L 16.8595,55.9269L 28.5875,45.8469L 60.1075,85.2003L 81.1835,85.2003L 40.6821,35.6123L 78.6181,2.34161L 57.3595,2.34161 Z "/>
	<path fill="#E2001A" fill-opacity="1" stroke-width="0.2" stroke-linejoin="round" d="M 243.949,2.34161L 220.127,64.8829L 196.853,2.34161L 178.711,2.34161L 212.064,85.2003L 227.456,85.2003L 261.909,2.34161L 243.949,2.34161 Z "/>
	<g>
		<defs>
			<rect id="SVG_CLIPPER3_" x="1.01725e-005" y="-0.375473" width="857.384" height="87.5827"/>
		</defs>
		<clipPath id="SVG_CLIPPER4_">
			<use xlink:href="#SVG_CLIPPER3_" overflow="visible"/>
		</clipPath>
		<g clip-path="url(#SVG_CLIPPER4_)">
			<path fill="#E2001A" fill-opacity="1" stroke-width="0.2" stroke-linejoin="round" d="M 334.814,2.31227L 334.814,11.3883C 326.951,4.11226 316.441,-0.374397 304.851,-0.374397C 280.531,-0.374397 260.814,19.2309 260.814,43.4176C 260.814,67.6029 280.531,87.2069 304.851,87.2069C 316.441,87.2069 326.951,82.7256 334.814,75.4429L 334.814,84.9389L 351.838,84.9389L 352.065,2.31227M 335.495,43.1709C 335.495,59.4696 322.282,72.6803 305.987,72.6803C 289.689,72.6803 276.477,59.4696 276.477,43.1709C 276.477,26.8749 289.689,13.6629 305.987,13.6629C 322.282,13.6629 335.495,26.8749 335.495,43.1709 Z "/>
			<path fill="#E2001A" fill-opacity="1" stroke-width="0.2" stroke-linejoin="round" d="M 151.404,2.31227L 151.404,11.3883C 143.542,4.11226 133.031,-0.374397 121.442,-0.374397C 97.1217,-0.374397 77.4057,19.2309 77.4057,43.4176C 77.4057,67.6029 97.1217,87.2069 121.442,87.2069C 133.031,87.2069 143.542,82.7256 151.404,75.4429L 151.404,84.9389L 168.43,84.9389L 168.655,2.31227M 152.086,43.1709C 152.086,59.4696 138.874,72.6803 122.575,72.6803C 106.279,72.6803 93.0671,59.4696 93.0671,43.1709C 93.0671,26.8749 106.279,13.6629 122.575,13.6629C 138.874,13.6629 152.086,26.8749 152.086,43.1709 Z "/>
		</g>
	</g>
</svg>
